<svg width="64" height="64" viewBox="0 0 64 64" fill="none" xmlns="http://www.w3.org/2000/svg">
<rect width="64" height="64" fill="white"/>
<g clip-path="url(#clip0_59_26015)">
<path d="M24.4881 30.7018L31.8959 47.0742C31.2706 48.2572 30.4327 49.3149 29.424 50.1941C27.0176 52.3338 23.9436 53.4005 20.2018 53.3941C18.191 53.3708 16.1985 53.0095 14.3075 52.3253C12.2585 51.6117 11.0852 51.2549 10.7876 51.2549C10.0751 51.2549 9.59512 51.473 9.34766 51.9093C9.10246 52.3414 8.93664 52.8139 8.85807 53.3045H7.5221L5.71094 40.356H7.10611C8.13328 43.0887 9.33912 45.2668 10.7236 46.8902C13.1353 49.7296 16.1326 51.1488 19.7154 51.1477C21.562 51.1816 23.3547 50.5248 24.7425 49.3062C26.1569 48.0795 26.8635 46.367 26.8625 44.1687C26.8625 42.19 26.1515 40.4674 24.7297 39.0008C23.8007 38.0707 21.8439 36.675 18.8594 34.8137L13.6724 31.577C12.1108 30.5871 10.865 29.5871 9.93484 28.577C8.20688 26.6549 7.3429 24.5366 7.3429 22.222C7.3429 19.1532 8.36208 16.5992 10.4004 14.5597C11.8841 13.0771 13.7177 12.1342 15.9011 11.731L17.0211 14.2141C16.1384 14.4493 15.3142 14.865 14.6003 15.4349C13.362 16.4141 12.7433 17.7751 12.7444 19.518C12.7444 21.0828 13.2185 22.4193 14.1667 23.5275C15.1161 24.655 16.5896 25.8331 18.5874 27.0619L23.9281 30.3578L24.4881 30.7018ZM30.6848 22.278C29.7408 20.1767 29.096 18.6743 28.7504 17.7709C28.4048 16.8674 28.2315 16.1645 28.2304 15.6621C28.2304 14.6765 28.7152 14.0232 29.6848 13.7022C30.2384 13.5198 31.2757 13.419 32.7967 13.3998V11.0222H18.9874L22.4546 18.7436C22.6241 19.102 22.7985 19.4812 22.9777 19.8844L38.0174 53.3237H38.9326L41.5901 46.5414L40.2077 43.4487L30.6848 22.278ZM45.5676 11.0222V13.3998H58.0105V11.0222H45.5676Z" fill="#1E1B1A"/>
</g>
<defs>
<clipPath id="clip0_59_26015">
<rect width="53.3333" height="53.3333" fill="white" transform="translate(5 5.33337)"/>
</clipPath>
</defs>
</svg>
