<svg width="90" height="90" viewBox="0 0 90 90" fill="none" xmlns="http://www.w3.org/2000/svg">
<path d="M12.8356 34.3141V34.1641H12.6856H5.37656V26.5823L38.1286 11.5362L70.8796 26.5823V34.1641H21.4256H21.2756V34.3141V70.3301V70.4801H21.4256H70.8796V78.4091H5.37656V70.4801H12.6856H12.8356V70.3301V34.3141ZM38.1912 13.7308L38.1286 13.702L38.0659 13.7308L7.42893 27.8088L7.34156 27.8489V27.9451V32.0491V32.1991H7.49156H68.7636H68.9136V32.0491V27.9451V27.8489L68.8262 27.8088L38.1912 13.7308ZM19.2986 34.3141V34.1641H19.1486H14.9606H14.8106V34.3141V70.3301V70.4801H14.9606H19.1486H19.2986V70.3301V34.3141ZM7.49156 72.4461H7.34156V72.5961V76.2931V76.4431H7.49156H68.7626H68.9126V76.2931V72.5961V72.4461H68.7626H7.49156Z" fill="black" stroke="white" stroke-width="0.3"/>
<path d="M38.129 29.4748C35.0191 29.4748 32.482 26.9292 32.482 23.8239C32.482 20.7147 35.0189 18.1769 38.129 18.1769C41.2334 18.1769 43.78 20.7159 43.78 23.8239C43.78 26.929 41.2342 29.4748 38.129 29.4748ZM38.129 27.4988C40.1738 27.4988 41.804 25.8718 41.804 23.8239C41.804 21.7783 40.1752 20.1429 38.129 20.1429C36.0811 20.1429 34.448 21.7781 34.448 23.8239C34.448 25.871 36.0815 27.4988 38.129 27.4988Z" fill="black" stroke="white" stroke-width="0.3"/>
<path d="M33.0202 40.1082H32.8702V40.2582V48.1122V48.294L33.0487 48.2595C37.0819 47.4798 40.2379 44.3197 41.0155 40.2866L41.0499 40.1082H40.8682H33.0202ZM72.5114 40.235L72.4915 40.1082H72.3632H43.1542H43.0259L43.006 40.2349C42.1981 45.3776 38.1355 49.4421 32.9959 50.251L32.8692 50.2709V50.3992V54.2412V54.3693L32.9957 54.3893C38.1345 55.2032 42.1981 59.2658 43.006 64.4104L43.0259 64.5372H43.1542H72.3632H72.4915L72.5114 64.4104C73.3173 59.2669 77.3817 55.2032 82.5326 54.3893L82.6592 54.3693V54.2412V50.3992V50.2709L82.5325 50.251C77.3827 49.4421 73.3173 45.3775 72.5114 40.235ZM82.6592 40.2582V40.1082H82.5092H74.6482H74.4665L74.5009 40.2866C75.2785 44.3187 78.4406 47.4859 82.4808 48.2645L82.6592 48.2989V48.1172V40.2582ZM82.5102 64.5372H82.6602V64.3872V56.5332V56.3518L82.4821 56.3858C78.4407 57.1574 75.2785 60.3176 74.5019 64.3589L74.4676 64.5372H74.6492H82.5102ZM33.0486 56.3859L32.8702 56.3515V56.5332V64.3872V64.5372H33.0202H40.8682H41.0499L41.0155 64.3588C40.2379 60.3257 37.0819 57.1635 33.0486 56.3859ZM84.6252 38.1422V66.5022H30.8922V38.1422H84.6252Z" fill="black" stroke="white" stroke-width="0.3"/>
<path d="M57.7639 63.1738C52.4986 63.1738 48.3609 58.2385 48.3609 52.3238C48.3609 46.4091 52.4987 41.4698 57.7639 41.4698C63.0252 41.4698 67.1669 46.4091 67.1669 52.3238C67.1669 58.2385 63.0253 63.1738 57.7639 63.1738ZM57.7639 61.2078C61.7961 61.2078 65.1889 57.3104 65.1889 52.3238C65.1889 47.3403 61.7972 43.4398 57.7639 43.4398C53.7269 43.4398 50.3269 47.339 50.3269 52.3238C50.3269 57.3096 53.727 61.2078 57.7639 61.2078Z" fill="black" stroke="white" stroke-width="0.3"/>
<path d="M56.2091 54.4663L55.2561 53.9193M56.2091 54.4663L59.7611 50.8163C58.8811 50.1183 57.7461 49.4873 57.0271 50.2533C56.7133 50.7985 57.3041 51.0006 58.1643 51.2947C58.5458 51.4252 58.9801 51.5737 59.4121 51.7783C60.2151 52.1653 60.9871 53.2223 60.9711 54.3683C60.9591 55.4153 60.1681 56.5963 58.8871 56.9403V58.6713H58.7371M56.2091 54.4663C56.8921 54.8503 58.7051 55.3093 58.7051 54.3683C58.7051 53.9463 58.0381 53.5873 56.8501 53.2783L56.889 53.1334C56.8888 53.1334 56.8886 53.1333 56.8884 53.1333C56.4712 53.0213 55.967 52.8509 55.5096 52.438C55.0557 52.0282 54.6941 51.327 54.6941 50.5493C54.6941 49.2973 55.5736 48.2981 56.6803 47.8869L56.7781 47.8506V47.7463V45.9703H58.7361V47.6593V47.7707L58.8427 47.8029C59.5251 48.0093 60.3307 48.4794 60.973 49.065L59.7366 50.607M56.2091 54.4663L59.7366 50.607M55.2561 53.9193L54.1211 55.8843M55.2561 53.9193L55.1814 54.0494L55.3112 54.1239M55.2561 53.9193L55.386 53.9943L55.3112 54.1239M54.1211 55.8843C54.8871 56.4313 55.8091 56.7753 56.6271 56.9933V58.6713H56.7771M54.1211 55.8843L54.251 55.9593L54.32 55.8398M54.1211 55.8843L54.2083 55.7622C54.2451 55.7886 54.2824 55.8144 54.32 55.8398M56.7771 58.6713V58.8213H58.7371V58.6713M56.7771 58.6713H58.7371M56.7771 58.6713V56.9933V56.8781L56.6657 56.8484C55.8966 56.6434 55.0429 56.3278 54.32 55.8398M58.7371 58.6713V56.9403V56.8253L58.8482 56.7954C60.0628 56.4693 60.8098 55.348 60.8211 54.3666L60.8211 54.3662C60.8362 53.2823 60.1009 52.277 59.3474 51.9136C59.0036 51.7508 58.6568 51.6236 58.3334 51.5114C58.2611 51.4864 58.1895 51.4619 58.1192 51.4379C57.8788 51.3557 57.6536 51.2787 57.4646 51.1996C57.2255 51.0996 57.0088 50.9828 56.8894 50.8179C56.826 50.7303 56.7898 50.6289 56.7919 50.5147C56.7939 50.4033 56.8322 50.2912 56.8971 50.1785L56.9058 50.1634L56.9177 50.1507C57.3299 49.7115 57.8613 49.6831 58.3779 49.8425C58.8443 49.9864 59.3195 50.2876 59.7366 50.607M59.7366 50.607L55.3112 54.1239M54.32 55.8398L55.3112 54.1239" fill="black" stroke="white" stroke-width="0.3"/>
</svg>
