<svg width="44" height="44" viewBox="0 0 44 44" fill="none" xmlns="http://www.w3.org/2000/svg">
<g clip-path="url(#clip0_0_2400)">
<path d="M10.2672 28.9668C7.84057 28.9668 5.86719 30.9402 5.86719 33.3668C5.86719 35.7934 7.84057 37.7668 10.2672 37.7668C12.6938 37.7668 14.6672 35.7934 14.6672 33.3668C14.6672 30.9402 12.6937 28.9668 10.2672 28.9668ZM10.2672 36.3001C8.64941 36.3001 7.33388 34.9845 7.33388 33.3668C7.33388 31.749 8.6495 30.4335 10.2672 30.4335C11.8849 30.4335 13.2005 31.7491 13.2005 33.3668C13.2005 34.9845 11.8849 36.3001 10.2672 36.3001Z" fill="black"/>
<path d="M35.1988 28.9668C32.7722 28.9668 30.7988 30.9402 30.7988 33.3668C30.7988 35.7934 32.7722 37.7668 35.1988 37.7668C37.6254 37.7668 39.5988 35.7934 39.5988 33.3668C39.5988 30.9402 37.6254 28.9668 35.1988 28.9668ZM35.1988 36.3001C33.5811 36.3001 32.2655 34.9845 32.2655 33.3668C32.2655 31.749 33.5811 30.4335 35.1988 30.4335C36.8166 30.4335 38.1321 31.7491 38.1321 33.3668C38.1321 34.9845 36.8166 36.3001 35.1988 36.3001Z" fill="black"/>
<path d="M43.8839 24.9036L37.2839 14.6369C37.149 14.4271 36.9165 14.3003 36.6671 14.3003H28.6005C28.195 14.3003 27.8672 14.6288 27.8672 15.0336V33.3669C27.8672 33.7724 28.195 34.1002 28.6005 34.1002H31.5338V32.6335H29.3338V15.767H36.2667L42.5338 25.5159V32.6337H38.8671V34.1003H43.2671C43.6726 34.1003 44.0004 33.7725 44.0004 33.367V25.3003C44.0005 25.1602 43.9602 25.0216 43.8839 24.9036Z" fill="black"/>
<path d="M32.2654 23.8334V18.7001H38.1321V17.2334H31.5321C31.1266 17.2334 30.7988 17.5619 30.7988 17.9667V24.5667C30.7988 24.9723 31.1266 25.3 31.5321 25.3H42.5321V23.8333H32.2654V23.8334Z" fill="black"/>
<path d="M28.6 9.1665H0.733305C0.328539 9.1665 0 9.49504 0 9.89981V33.3665C0 33.772 0.328539 34.0998 0.733305 34.0998H6.6V32.6331H1.4667V10.6331H27.8667V32.6331H13.9333V34.0998H28.6C29.0055 34.0998 29.3333 33.772 29.3333 33.3665V9.89981C29.3333 9.49504 29.0055 9.1665 28.6 9.1665Z" fill="black"/>
<path d="M5.13242 29.6997H0.732422V31.1664H5.13242V29.6997Z" fill="black"/>
<path d="M27.8651 29.6997H15.3984V31.1664H27.8651V29.6997Z" fill="black"/>
<path d="M43.2673 29.6997H40.334V31.1664H43.2673V29.6997Z" fill="black"/>
<path d="M28.6003 12.0996H2.93359V13.5663H28.6003V12.0996Z" fill="black"/>
<path d="M10.9999 32.6333H9.5332V34.1H10.9999V32.6333Z" fill="black"/>
<path d="M35.9335 32.6333H34.4668V34.1H35.9335V32.6333Z" fill="black"/>
<path d="M13.2003 6.2334H2.93359V7.70009H13.2003V6.2334Z" fill="black"/>
<path d="M1.4667 6.2334H0V7.70009H1.4667V6.2334Z" fill="black"/>
</g>
<defs>
<clipPath id="clip0_0_2400">
<rect width="44" height="44" fill="white"/>
</clipPath>
</defs>
</svg>
