<svg width="91" height="90" viewBox="0 0 91 90" fill="none" xmlns="http://www.w3.org/2000/svg">
<g clip-path="url(#clip0_0_2451)">
<path d="M89.7793 26.3512C89.1306 25.3602 88.1216 24.6755 86.9685 24.4413L24.4099 11.4683C23.2568 11.2341 22.0495 11.4503 21.0766 12.117C20.0856 12.7476 19.4009 13.7566 19.1667 14.9097L18.0135 20.4593L16.8784 25.9728H4.93243C2.48198 25.9728 0.5 27.9548 0.5 30.4052V74.189C0.5 76.6395 2.48198 78.6215 4.93243 78.6215H68.8243C70.8243 78.6215 72.5901 77.2701 73.0946 75.3242L76.2838 75.9908C76.5721 76.0449 76.8784 76.0809 77.1847 76.0809C79.2928 76.0809 81.0946 74.6034 81.527 72.5494L87.0586 45.8827L89.2928 35.0719L90.4099 29.6665C90.6441 28.5133 90.4279 27.3242 89.7793 26.3512ZM19.6892 23.0179L34.1216 25.9728H19.0766L19.6892 23.0179ZM68.8243 76.4593H4.93243C3.67117 76.4593 2.66216 75.4503 2.66216 74.189V30.4052C2.64414 29.162 3.65315 28.153 4.8964 28.135H4.93243H68.8243C70.0856 28.135 71.0946 29.144 71.0946 30.4052V74.189C71.1126 75.4323 70.1036 76.4413 68.8604 76.4593C68.8423 76.4593 68.8423 76.4593 68.8243 76.4593ZM73.2568 33.9908L86.7342 36.7656L85.3649 43.3602L73.2568 41.0359V33.9908ZM79.4009 72.1169C79.1667 73.3242 77.9955 74.1169 76.7703 73.8827C76.7523 73.8827 76.7342 73.8827 76.7162 73.8647L73.2568 73.162V43.2341L84.9324 45.4683L79.4009 72.1169ZM73.2568 31.7926V30.4052C73.2568 27.9548 71.2748 25.9728 68.8243 25.9728H44.8784L20.1396 20.8917L21.2928 15.3422C21.4009 14.7476 21.7613 14.2431 22.2658 13.9188C22.6261 13.6665 23.0586 13.5404 23.509 13.5404C23.6532 13.5404 23.8153 13.5584 23.9595 13.5944L86.536 26.5494C87.7613 26.8016 88.536 28.0088 88.2838 29.2341L87.1667 34.6395L73.2568 31.7926Z" fill="black"/>
<path d="M11.8686 43.432H17.0758C18.3551 43.414 19.3821 42.3869 19.3641 41.1077V41.0897V37.1978C19.3821 35.9185 18.3551 34.8554 17.0758 34.8374H11.8686C10.5893 34.8554 9.5623 35.9185 9.58032 37.1978V41.0897C9.5623 42.3689 10.5713 43.414 11.8686 43.432ZM11.7425 37.1978C11.7425 37.0716 11.8146 36.9996 11.8686 36.9996H17.0758C17.1299 36.9996 17.2019 37.0716 17.2019 37.1978V41.0897C17.2019 41.1978 17.1299 41.2698 17.0758 41.2698H11.8686C11.8146 41.2698 11.7425 41.1978 11.7425 41.0897V37.1978Z" fill="black"/>
<path d="M6.69922 63.144H9.92444V65.3062H6.69922V63.144Z" fill="black"/>
<path d="M11.9414 63.144H15.1666V65.3062H11.9414V63.144Z" fill="black"/>
<path d="M17.2578 63.144H20.483V65.3062H17.2578V63.144Z" fill="black"/>
<path d="M22.5 63.144H25.7252V65.3062H22.5V63.144Z" fill="black"/>
<path d="M27.834 63.144H31.0592V65.3062H27.834V63.144Z" fill="black"/>
<path d="M57.0215 32.1528H59.1837V35.3781H57.0215V32.1528Z" fill="black"/>
<path d="M61.4551 32.1528H63.6172V35.3781H61.4551V32.1528Z" fill="black"/>
<path d="M47.4199 32.1528H49.5821V35.3781H47.4199V32.1528Z" fill="black"/>
<path d="M51.8516 32.1528H54.0137V35.3781H51.8516V32.1528Z" fill="black"/>
<path d="M6.69922 70.2251H31.0596V72.3873H6.69922V70.2251Z" fill="black"/>
<path d="M34.6646 44.86H37.3346C38.4279 44.86 39.2779 45.1567 39.8846 45.75C40.4979 46.3433 40.8046 47.2233 40.8046 48.39C40.8046 48.9833 40.7179 49.5033 40.5446 49.95C40.3779 50.3967 40.1346 50.7733 39.8146 51.08C39.4946 51.3867 39.1046 51.6167 38.6446 51.77C38.1846 51.9233 37.6646 52 37.0846 52H34.6646V44.86ZM37.1146 50.73C37.5012 50.73 37.8312 50.6767 38.1046 50.57C38.3779 50.4567 38.5979 50.2967 38.7646 50.09C38.9379 49.8833 39.0646 49.64 39.1446 49.36C39.2246 49.0733 39.2646 48.7533 39.2646 48.4C39.2646 48.0533 39.2279 47.74 39.1546 47.46C39.0879 47.1733 38.9779 46.9333 38.8246 46.74C38.6712 46.5467 38.4712 46.3967 38.2246 46.29C37.9846 46.1833 37.6879 46.13 37.3346 46.13H36.1546V50.73H37.1146ZM42.0376 44.86H46.9076V46.13H43.5276V47.69H46.7076V48.97H43.5276V50.73H47.1176L46.9676 52H42.0376V44.86ZM48.1704 44.86H50.7404C51.2671 44.86 51.7004 44.91 52.0404 45.01C52.3871 45.11 52.6604 45.2467 52.8604 45.42C53.0604 45.5933 53.1971 45.7967 53.2704 46.03C53.3504 46.2633 53.3904 46.5167 53.3904 46.79C53.3904 47.07 53.3304 47.3333 53.2104 47.58C53.0904 47.8267 52.8638 48.0367 52.5304 48.21C52.7438 48.3233 52.9171 48.4433 53.0504 48.57C53.1904 48.69 53.2971 48.82 53.3704 48.96C53.4504 49.1 53.5038 49.2433 53.5304 49.39C53.5638 49.5367 53.5804 49.6833 53.5804 49.83C53.5804 50.13 53.5338 50.4133 53.4404 50.68C53.3538 50.9467 53.2038 51.1767 52.9904 51.37C52.7838 51.5633 52.5104 51.7167 52.1704 51.83C51.8304 51.9433 51.4104 52 50.9104 52H48.1704V44.86ZM50.9104 47.69C51.3038 47.69 51.5738 47.6167 51.7204 47.47C51.8671 47.3233 51.9404 47.1133 51.9404 46.84C51.9404 46.5467 51.8438 46.34 51.6504 46.22C51.4638 46.0933 51.1438 46.03 50.6904 46.03H49.6104V47.69H50.9104ZM50.8604 50.83C51.1071 50.83 51.3104 50.8067 51.4704 50.76C51.6371 50.7133 51.7704 50.6467 51.8704 50.56C51.9704 50.4667 52.0404 50.36 52.0804 50.24C52.1204 50.12 52.1404 49.9833 52.1404 49.83C52.1404 49.5233 52.0571 49.29 51.8904 49.13C51.7238 48.97 51.4304 48.89 51.0104 48.89H49.6104V50.83H50.8604ZM54.645 44.86H56.135V52H54.645V44.86ZM59.2143 46.15H57.0643V44.86H62.8643V46.15H60.7143V52H59.2143V46.15Z" fill="#1E1B1A"/>
</g>
<defs>
<clipPath id="clip0_0_2451">
<rect width="90" height="90" fill="white" transform="translate(0.5)"/>
</clipPath>
</defs>
</svg>
