<svg width="91" height="90" viewBox="0 0 91 90" fill="none" xmlns="http://www.w3.org/2000/svg">
<g clip-path="url(#clip0_0_2451)">
<path d="M89.7793 26.3512C89.1306 25.3602 88.1216 24.6755 86.9685 24.4413L24.4099 11.4683C23.2568 11.2341 22.0495 11.4503 21.0766 12.117C20.0856 12.7476 19.4009 13.7566 19.1667 14.9097L18.0135 20.4593L16.8784 25.9728H4.93243C2.48198 25.9728 0.5 27.9548 0.5 30.4052V74.189C0.5 76.6395 2.48198 78.6215 4.93243 78.6215H68.8243C70.8243 78.6215 72.5901 77.2701 73.0946 75.3242L76.2838 75.9908C76.5721 76.0449 76.8784 76.0809 77.1847 76.0809C79.2928 76.0809 81.0946 74.6034 81.527 72.5494L87.0586 45.8827L89.2928 35.0719L90.4099 29.6665C90.6441 28.5133 90.4279 27.3242 89.7793 26.3512ZM19.6892 23.0179L34.1216 25.9728H19.0766L19.6892 23.0179ZM68.8243 76.4593H4.93243C3.67117 76.4593 2.66216 75.4503 2.66216 74.189V30.4052C2.64414 29.162 3.65315 28.153 4.8964 28.135H4.93243H68.8243C70.0856 28.135 71.0946 29.144 71.0946 30.4052V74.189C71.1126 75.4323 70.1036 76.4413 68.8604 76.4593C68.8423 76.4593 68.8423 76.4593 68.8243 76.4593ZM73.2568 33.9908L86.7342 36.7656L85.3649 43.3602L73.2568 41.0359V33.9908ZM79.4009 72.1169C79.1667 73.3242 77.9955 74.1169 76.7703 73.8827C76.7523 73.8827 76.7342 73.8827 76.7162 73.8647L73.2568 73.162V43.2341L84.9324 45.4683L79.4009 72.1169ZM73.2568 31.7926V30.4052C73.2568 27.9548 71.2748 25.9728 68.8243 25.9728H44.8784L20.1396 20.8917L21.2928 15.3422C21.4009 14.7476 21.7613 14.2431 22.2658 13.9188C22.6261 13.6665 23.0586 13.5404 23.509 13.5404C23.6532 13.5404 23.8153 13.5584 23.9595 13.5944L86.536 26.5494C87.7613 26.8016 88.536 28.0088 88.2838 29.2341L87.1667 34.6395L73.2568 31.7926Z" fill="black"/>
<path d="M11.8686 43.432H17.0758C18.3551 43.414 19.3821 42.3869 19.3641 41.1077V41.0897V37.1978C19.3821 35.9185 18.3551 34.8554 17.0758 34.8374H11.8686C10.5893 34.8554 9.5623 35.9185 9.58032 37.1978V41.0897C9.5623 42.3689 10.5713 43.414 11.8686 43.432ZM11.7425 37.1978C11.7425 37.0716 11.8146 36.9996 11.8686 36.9996H17.0758C17.1299 36.9996 17.2019 37.0716 17.2019 37.1978V41.0897C17.2019 41.1978 17.1299 41.2698 17.0758 41.2698H11.8686C11.8146 41.2698 11.7425 41.1978 11.7425 41.0897V37.1978Z" fill="black"/>
<path d="M6.69922 63.144H9.92444V65.3062H6.69922V63.144Z" fill="black"/>
<path d="M11.9414 63.144H15.1666V65.3062H11.9414V63.144Z" fill="black"/>
<path d="M17.2578 63.144H20.483V65.3062H17.2578V63.144Z" fill="black"/>
<path d="M22.5 63.144H25.7252V65.3062H22.5V63.144Z" fill="black"/>
<path d="M27.834 63.144H31.0592V65.3062H27.834V63.144Z" fill="black"/>
<path d="M57.0215 32.1528H59.1837V35.3781H57.0215V32.1528Z" fill="black"/>
<path d="M61.4551 32.1528H63.6172V35.3781H61.4551V32.1528Z" fill="black"/>
<path d="M47.4199 32.1528H49.5821V35.3781H47.4199V32.1528Z" fill="black"/>
<path d="M51.8516 32.1528H54.0137V35.3781H51.8516V32.1528Z" fill="black"/>
<path d="M6.69922 70.2251H31.0596V72.3873H6.69922V70.2251Z" fill="black"/>
    <path d="M33.6708 49.53C33.6375 49.91 33.5475 50.2633 33.4008 50.59C33.2608 50.91 33.0642 51.19 32.8108 51.43C32.5642 51.6633 32.2575 51.8467 31.8908 51.98C31.5308 52.1133 31.1108 52.18 30.6308 52.18C30.0908 52.18 29.6142 52.09 29.2008 51.91C28.7942 51.73 28.4508 51.4767 28.1708 51.15C27.8975 50.8233 27.6908 50.43 27.5508 49.97C27.4108 49.5033 27.3408 48.99 27.3408 48.43C27.3408 47.85 27.4175 47.33 27.5708 46.87C27.7242 46.41 27.9442 46.0167 28.2308 45.69C28.5175 45.3633 28.8642 45.1133 29.2708 44.94C29.6775 44.7667 30.1375 44.68 30.6508 44.68C31.1042 44.68 31.4975 44.7367 31.8308 44.85C32.1708 44.9633 32.4542 45.1267 32.6808 45.34C32.9142 45.5533 33.1008 45.81 33.2408 46.11C33.3808 46.41 33.4842 46.7467 33.5508 47.12L32.0708 47.31C31.9975 46.89 31.8542 46.56 31.6408 46.32C31.4342 46.08 31.1042 45.96 30.6508 45.96C30.0775 45.96 29.6408 46.1767 29.3408 46.61C29.0475 47.0367 28.9008 47.6433 28.9008 48.43C28.9008 49.2233 29.0575 49.8333 29.3708 50.26C29.6908 50.6867 30.1175 50.9 30.6508 50.9C31.1108 50.9 31.4475 50.7833 31.6608 50.55C31.8808 50.31 32.0175 49.97 32.0708 49.53H33.6708ZM34.6997 44.86H37.2297C37.7897 44.86 38.2497 44.9267 38.6097 45.06C38.9764 45.1867 39.2631 45.3567 39.4697 45.57C39.6764 45.7767 39.8197 46.01 39.8997 46.27C39.9797 46.5233 40.0197 46.7733 40.0197 47.02C40.0197 47.48 39.9364 47.8667 39.7697 48.18C39.6031 48.4933 39.3231 48.7567 38.9297 48.97L40.3797 52H38.7697L37.5697 49.32H36.1697V52H34.6997V44.86ZM37.3297 48.08C37.5631 48.08 37.7564 48.0567 37.9097 48.01C38.0631 47.9567 38.1831 47.8867 38.2697 47.8C38.3631 47.7067 38.4264 47.5967 38.4597 47.47C38.4931 47.3433 38.5097 47.2033 38.5097 47.05C38.5097 46.9233 38.4897 46.8033 38.4497 46.69C38.4097 46.57 38.3397 46.4667 38.2397 46.38C38.1464 46.2867 38.0131 46.2167 37.8397 46.17C37.6731 46.1167 37.4597 46.09 37.1997 46.09H36.1697V48.08H37.3297ZM41.2329 44.86H46.1029V46.13H42.7229V47.69H45.9029V48.97H42.7229V50.73H46.3129L46.1629 52H41.2329V44.86ZM47.3657 44.86H50.0357C51.1291 44.86 51.9791 45.1567 52.5857 45.75C53.1991 46.3433 53.5057 47.2233 53.5057 48.39C53.5057 48.9833 53.4191 49.5033 53.2457 49.95C53.0791 50.3967 52.8357 50.7733 52.5157 51.08C52.1957 51.3867 51.8057 51.6167 51.3457 51.77C50.8857 51.9233 50.3657 52 49.7857 52H47.3657V44.86ZM49.8157 50.73C50.2024 50.73 50.5324 50.6767 50.8057 50.57C51.0791 50.4567 51.2991 50.2967 51.4657 50.09C51.6391 49.8833 51.7657 49.64 51.8457 49.36C51.9257 49.0733 51.9657 48.7533 51.9657 48.4C51.9657 48.0533 51.9291 47.74 51.8557 47.46C51.7891 47.1733 51.6791 46.9333 51.5257 46.74C51.3724 46.5467 51.1724 46.3967 50.9257 46.29C50.6857 46.1833 50.3891 46.13 50.0357 46.13H48.8557V50.73H49.8157ZM54.7388 44.86H56.2288V52H54.7388V44.86ZM59.308 46.15H57.158V44.86H62.958V46.15H60.808V52H59.308V46.15Z" fill="#1E1B1A"/>
</g>
<defs>
<clipPath id="clip0_0_2451">
<rect width="90" height="90" fill="white" transform="translate(0.5)"/>
</clipPath>
</defs>
</svg>
