<svg width="44" height="44" viewBox="0 0 44 44" fill="none" xmlns="http://www.w3.org/2000/svg">
<path d="M32.366 19.2891H31.0297C30.8904 17.4884 30.1728 15.8475 29.0632 14.5519L30.0111 13.6039C30.2628 13.3521 30.2628 12.9441 30.0111 12.6923C29.7595 12.4407 29.3514 12.4407 29.0997 12.6923L28.1516 13.6403C26.8559 12.5306 25.215 11.813 23.4144 11.6738V10.3374C23.4144 9.98136 23.1258 9.69287 22.7699 9.69287C22.4139 9.69287 22.1253 9.98136 22.1253 10.3374V11.6738C20.3247 11.813 18.6839 12.5307 17.3881 13.6403L16.4401 12.6923C16.1884 12.4407 15.7803 12.4407 15.5287 12.6923C15.277 12.9441 15.277 13.3522 15.5287 13.6039L16.4767 14.5519C15.367 15.8476 14.6494 17.4885 14.5102 19.2891H13.1738C12.8179 19.2891 12.5293 19.5776 12.5293 19.9336C12.5293 20.2897 12.8179 20.5781 13.1738 20.5781H14.5102C14.6494 22.3788 15.367 24.0196 16.4767 25.3154L15.5287 26.2633C15.277 26.5151 15.277 26.9232 15.5287 27.1749C15.6545 27.3007 15.8195 27.3636 15.9844 27.3636C16.1493 27.3636 16.3143 27.3007 16.4401 27.1749L17.3881 26.2269C18.6839 27.3366 20.3247 28.0542 22.1253 28.1934V29.5298C22.1253 29.8859 22.4139 30.1744 22.7699 30.1744C23.1258 30.1744 23.4144 29.8859 23.4144 29.5298V28.1934C25.215 28.0542 26.8559 27.3366 28.1516 26.2269L29.0996 27.1749C29.2254 27.3007 29.3904 27.3636 29.5553 27.3636C29.7202 27.3636 29.8852 27.3007 30.0111 27.1749C30.2628 26.9231 30.2628 26.5151 30.0111 26.2633L29.0631 25.3154C30.1728 24.0198 30.8904 22.3789 31.0296 20.5782H32.3659C32.7219 20.5782 33.0104 20.2897 33.0104 19.9337C33.0105 19.5776 32.7219 19.2891 32.366 19.2891ZM22.7698 26.9292C18.9124 26.9292 15.7741 23.7909 15.7741 19.9336C15.7741 16.0761 18.9124 12.938 22.7698 12.938C26.6273 12.938 29.7654 16.0762 29.7654 19.9336C29.7654 23.791 26.6273 26.9292 22.7698 26.9292Z" fill="black"/>
<path d="M27.1846 19.2891H26.0491C25.7478 17.7535 24.3923 16.5913 22.7699 16.5913C20.927 16.5913 19.4277 18.0906 19.4277 19.9336C19.4277 21.7764 20.927 23.2758 22.7699 23.2758C24.3923 23.2758 25.7479 22.1136 26.0491 20.5781H27.1846C27.5406 20.5781 27.8292 20.2896 27.8292 19.9336C27.8292 19.5775 27.5406 19.2891 27.1846 19.2891ZM22.7698 21.9867C21.6377 21.9867 20.7167 21.0656 20.7167 19.9336C20.7167 18.8014 21.6377 17.8804 22.7698 17.8804C23.902 17.8804 24.823 18.8014 24.823 19.9336C24.823 21.0656 23.902 21.9867 22.7698 21.9867Z" fill="black"/>
<path d="M39.1405 0H4.85938C3.31938 0 2.06641 1.25288 2.06641 2.79297V18.529C2.06641 18.885 2.35498 19.1735 2.71094 19.1735C3.06689 19.1735 3.35547 18.885 3.35547 18.529V16.3927H5.96737V23.4743H3.35547V21.338C3.35547 20.982 3.06689 20.6935 2.71094 20.6935C2.35498 20.6935 2.06641 20.982 2.06641 21.338V37.074C2.06641 38.6141 3.31938 39.867 4.85938 39.867H5.96737H7.47127H9H11H12.7878H31.2122H32.5H36.5286H38.0326H39.1406C40.6806 39.867 41.9336 38.6141 41.9336 37.074V32.4331C41.9336 32.077 41.645 31.7885 41.2891 31.7885C40.9331 31.7885 40.6445 32.077 40.6445 32.4331V37.074C40.6445 37.9033 39.9698 38.5779 39.1406 38.5779H4.85938C4.03016 38.5779 3.35547 37.9033 3.35547 37.074V31.6731H5.96737V34.4621C5.96737 35.2914 6.64206 35.966 7.47127 35.966H36.5286C37.3578 35.966 38.0325 35.2914 38.0325 34.4621V24.7633H40.6444V29.624C40.6444 29.9801 40.933 30.2686 41.289 30.2686C41.6449 30.2686 41.9335 29.9801 41.9335 29.624V2.79297C41.9335 1.25288 40.6805 0 39.1405 0ZM3.35547 9.48295H6.6119H7.98441C8.10283 9.48295 8.19925 9.57928 8.19925 9.69779V14.8888C8.19925 15.0074 8.10283 15.1037 7.98441 15.1037H6.6119H3.35547V9.48295ZM3.35547 24.7633H6.6119H7.98441C8.10283 24.7633 8.19925 24.8597 8.19925 24.9782V30.1692C8.19925 30.2877 8.10283 30.3841 7.98441 30.3841H6.6119H3.35547V24.7633ZM36.7435 34.4622C36.7435 34.5807 36.6471 34.6771 36.5286 34.6771H7.47127C7.35277 34.6771 7.25643 34.5807 7.25643 34.4622V31.6731H7.98441C8.81362 31.6731 9.48831 30.9985 9.48831 30.1692V24.9782C9.48831 24.149 8.81362 23.4743 7.98441 23.4743H7.25643V16.3927H7.98441C8.81362 16.3927 9.48831 15.7181 9.48831 14.8888V9.69779C9.48831 8.86858 8.81362 8.19388 7.98441 8.19388H7.25643V5.40487C7.25643 5.28636 7.35277 5.19002 7.47127 5.19002H16.4928C16.8488 5.19002 17.1374 4.90153 17.1374 4.54549C17.1374 4.18945 16.8488 3.90096 16.4928 3.90096H7.47127C6.64206 3.90096 5.96737 4.57566 5.96737 5.40487V8.19388H3.35547V2.79297C3.35547 1.96376 4.03016 1.28906 4.85938 1.28906H39.1404C39.9697 1.28906 40.6444 1.96376 40.6444 2.79297V15.1037H38.0325V5.40487C38.0325 4.57566 37.3578 3.90096 36.5285 3.90096H19.3019C18.9459 3.90096 18.6573 4.18945 18.6573 4.54549C18.6573 4.90153 18.9459 5.19002 19.3019 5.19002H36.5286C36.6471 5.19002 36.7435 5.28636 36.7435 5.40487V34.4622ZM38.0325 23.4743V16.3927H40.6444V23.4743H38.0325Z" fill="black"/>
</svg>
