<svg width="112" height="90" viewBox="0 0 112 90" fill="none" xmlns="http://www.w3.org/2000/svg">
<g opacity="0.3" clip-path="url(#clip0_0_525)">
<path d="M39.8771 41.7963L55.6097 76.5647C54.353 78.9866 52.6029 81.195 50.3594 83.1896C45.2514 87.7314 38.7241 90.0019 30.7774 90.0011C26.7805 90.0011 22.6076 89.2446 18.2588 87.7314C13.9101 86.2182 11.4186 85.4609 10.7845 85.4594C9.27211 85.4594 8.25226 85.9222 7.72498 86.8478C7.20204 87.7649 6.8499 88.7694 6.68567 89.8123H3.84704L0 62.3144H2.96454C5.14617 68.1137 7.70704 72.7383 10.6472 76.1881C15.7682 82.2026 22.1284 85.2091 29.7278 85.2076C33.8415 85.2076 37.3994 83.9042 40.4013 81.2976C43.4032 78.691 44.9042 75.0542 44.9042 70.3873C44.9042 66.1828 43.3941 62.5246 40.3738 59.4128C38.4005 57.4357 34.246 54.4716 27.9102 50.5204L16.8933 43.6471C13.5793 41.5448 10.9337 39.4212 8.95658 37.2762C5.29382 33.1984 3.46474 28.6994 3.46931 23.7791C3.46931 17.2625 5.63415 11.8386 9.96383 7.50744C13.1138 4.36055 17.0055 2.3594 21.6389 1.50401L24.0265 6.77833C22.1532 7.27793 20.4037 8.16027 18.8884 9.36971C16.2603 11.4529 14.9467 14.3434 14.9475 18.0412C14.9475 21.3636 15.9543 24.2015 17.9681 26.5548C19.9811 28.9515 23.1097 31.4529 27.3539 34.0588L38.6958 41.0603C39.0976 41.3064 39.4902 41.5525 39.8771 41.7963ZM53.0401 23.9084C51.0386 19.4491 49.6685 16.2591 48.9298 14.3384C48.1912 12.4178 47.8233 10.9229 47.8264 9.85387C47.8264 7.75925 48.8565 6.37123 50.9168 5.68981C52.092 5.30446 54.2946 5.09119 57.5247 5.04998V0H28.1986L35.5596 16.3953C35.9213 17.1583 36.2922 17.966 36.6722 18.8184L68.5942 89.8123H70.54L76.1979 75.4384L73.2596 68.8718L53.0401 23.9084ZM84.6416 5.05456H111.064V0H84.6416V5.05456Z" fill="white"/>
</g>
<defs>
<clipPath id="clip0_0_525">
<rect width="111.064" height="90" fill="white"/>
</clipPath>
</defs>
</svg>
