<svg width="10" height="14" fill="none" xmlns="http://www.w3.org/2000/svg"><path d="M5.618 6.125v-3.11a4.148 4.148 0 011.83.795.655.655 0 00.362.115.76.76 0 00.76-.751.675.675 0 00-.195-.478A4.663 4.663 0 005.61 1.583V.54A.539.539 0 005.07 0h-.018a.548.548 0 00-.556.54v1.007c-1.989.142-3.34 1.37-3.34 3.005 0 2.006 1.705 2.563 3.34 3.005v3.535a4.586 4.586 0 01-2.342-1.034.736.736 0 00-.442-.16.769.769 0 00-.716.779c0 .178.07.35.195.477a5.205 5.205 0 003.314 1.334v.991a.547.547 0 00.574.52c.298 0 .54-.24.54-.539v-.99c2.412-.159 3.384-1.626 3.384-3.181 0-2.086-1.75-2.722-3.385-3.164zm-1.113-.283C3.54 5.56 2.79 5.268 2.79 4.446s.68-1.414 1.715-1.493v2.89zm1.113 5.268V7.893c.999.283 1.776.663 1.768 1.59 0 .672-.46 1.467-1.768 1.627z" fill="#fff"/></svg>