<svg width="14" height="14" fill="none" xmlns="http://www.w3.org/2000/svg"><path d="M12.111 11.084c-.827.87-1.885 1.35-2.981 1.35-1.796 0-3.35-1.262-4.082-3.085h4.988a.783.783 0 000-1.566H4.65a6.553 6.553 0 01.013-1.664h5.373a.783.783 0 000-1.567H5.089c.748-1.77 2.278-2.986 4.041-2.986 1.096 0 2.154.48 2.981 1.35a.783.783 0 001.136-1.08C12.12.652 10.659 0 9.13 0 6.52 0 4.287 1.896 3.421 4.552H1.322a.783.783 0 000 1.567h1.763a8.061 8.061 0 00-.01 1.664H1.322a.783.783 0 000 1.567H3.39C4.232 12.057 6.487 14 9.13 14c1.53 0 2.991-.652 4.116-1.836a.783.783 0 00-1.135-1.08z" fill="#fff"/></svg>