<svg width="12" height="14" fill="none" xmlns="http://www.w3.org/2000/svg"><path d="M10.801 11.746v.002l-.098.021a.48.48 0 00-.136.04l-.04.015c-.653.331-1.34.5-2.035.5-.126 0-.362-.033-.703-.098-.34-.059-.71-.124-1.105-.196-.395-.071-.783-.14-1.164-.205a5.583 5.583 0 00-.907-.098c-.16 0-.323.008-.483.023l-.683.065.467-.503c.047-.05.09-.1.133-.15.21-.245.384-.503.516-.77.133-.265.23-.558.29-.87.058-.314.088-.668.088-1.051 0-.175-.02-.349-.06-.517l-.079-.322 2.612-.005a.36.36 0 00.125-.033.674.674 0 00.477-.64.671.671 0 00-.616-.668h-.003a.41.41 0 01-.02-.001l-.034.002H4.48l-.058-.183c-.3-.964-.452-1.779-.452-2.422 0-.314.058-.617.174-.9.116-.282.277-.533.48-.748.2-.213.45-.383.739-.506.288-.121.615-.183.971-.183 1.45 0 2.216.689 2.344 2.106a.245.245 0 01.006.024l.005.064-.002.013c.001.03.01.074.027.126a.879.879 0 001.745-.02l.004-.12-.002-.033v-.02a4.211 4.211 0 00-.404-1.502A3.386 3.386 0 009.208.894 3.601 3.601 0 007.963.227 5.283 5.283 0 006.378 0c-.62 0-1.193.09-1.704.267a3.857 3.857 0 00-1.32.76 3.397 3.397 0 00-.859 1.214 4.091 4.091 0 00-.307 1.61c0 .279.038.622.112 1.02.058.315.146.679.264 1.082l.097.335-1.49-.004a.67.67 0 00-.006 1.335l.065.012 1.817.001.045.206c.069.317.104.64.104.963 0 .474-.045.9-.134 1.265a3.53 3.53 0 01-.385.97 2.984 2.984 0 01-.613.734c-.24.207-.518.394-.826.554-.497.165-1.052.464-.958.988a.836.836 0 00.918.681c.014-.002.014-.002.025-.008 1.214-.553 2.317-.832 3.283-.832.125 0 .3.02.52.062a28.633 28.633 0 011.534.348 33.33 33.33 0 001.515.353c.215.044.38.066.506.066h.039c.975 0 2.011-.408 2.055-.425.096-.042.388-.15.388-.15a.846.846 0 00.649-1.009.85.85 0 00-.91-.652z" fill="#fff"/></svg>