<svg width="18" height="18" fill="none" xmlns="http://www.w3.org/2000/svg"><path fill-rule="evenodd" clip-rule="evenodd" d="M9 17.217A8.217 8.217 0 109 .782a8.217 8.217 0 000 16.435zM9 18A9 9 0 109 0a9 9 0 000 18z" fill="#D0B36F"/><path d="M10.23 13.323h-.225c-.109 0-.263-.004-.463-.012a6.325 6.325 0 00-.514-.025c-.142 0-.313.008-.513.025-.2.008-.35.012-.45.012h-.239v-.087h.025c.276 0 .455-.046.539-.138.083-.092.125-.276.125-.551v-4.17c0-.267-.042-.446-.125-.538-.084-.092-.263-.138-.539-.138h-.025v-.1h.15c.3 0 .606-.05.915-.15.317-.109.509-.234.576-.376h.075v5.472c0 .275.041.46.125.55.083.093.267.139.55.139h.013v.087zM9.016 6.036a.672.672 0 01-.476-.188.645.645 0 01-.188-.476c0-.2.063-.363.188-.488a.672.672 0 01.476-.188c.192 0 .355.062.488.188.134.125.2.288.2.488 0 .192-.066.35-.2.476a.688.688 0 01-.488.188z" fill="#D0B36F"/></svg>