<svg width="20" height="20" fill="none" xmlns="http://www.w3.org/2000/svg"><g clip-path="url(#clip0_0_5760)" fill="#000"><path d="M3.125 10a.625.625 0 100-1.25.625.625 0 000 1.25z"/><path d="M6.25 1.25a2.5 2.5 0 00-2.5 2.5v2.5H2.5A2.5 2.5 0 000 8.75v3.75A2.5 2.5 0 002.5 15h1.25v1.25a2.5 2.5 0 002.5 2.5h7.5a2.5 2.5 0 002.5-2.5V15h1.25a2.5 2.5 0 002.5-2.5V8.75a2.5 2.5 0 00-2.5-2.5h-1.25v-2.5a2.5 2.5 0 00-2.5-2.5h-7.5zM5 3.75A1.25 1.25 0 016.25 2.5h7.5A1.25 1.25 0 0115 3.75v2.5H5v-2.5zM6.25 10a2.5 2.5 0 00-2.5 2.5v1.25H2.5a1.25 1.25 0 01-1.25-1.25V8.75A1.25 1.25 0 012.5 7.5h15a1.25 1.25 0 011.25 1.25v3.75a1.25 1.25 0 01-1.25 1.25h-1.25V12.5a2.5 2.5 0 00-2.5-2.5h-7.5zM15 12.5v3.75a1.25 1.25 0 01-1.25 1.25h-7.5A1.25 1.25 0 015 16.25V12.5a1.25 1.25 0 011.25-1.25h7.5A1.25 1.25 0 0115 12.5z"/></g><defs><clipPath id="clip0_0_5760"><path fill="#fff" d="M0 0h20v20H0z"/></clipPath></defs></svg>