<svg width="24" height="24" fill="none" xmlns="http://www.w3.org/2000/svg"><g clip-path="url(#clip0_117_11885)" fill="#000"><path d="M9.5 15h-6a.5.5 0 010-1h6a.5.5 0 010 1zM8.5 18h-5a.5.5 0 010-1h5a.5.5 0 010 1zM8.5 7c-1.103 0-2-.897-2-2s.897-2 2-2 2 .897 2 2-.897 2-2 2zm0-3c-.551 0-1 .449-1 1 0 .551.449 1 1 1 .551 0 1-.449 1-1 0-.551-.449-1-1-1zM12 12a.5.5 0 01-.5-.5v-1c0-.827-.673-1.5-1.5-1.5H7c-.827 0-1.5.673-1.5 1.5v1a.5.5 0 01-1 0v-1C4.5 9.122 5.622 8 7 8h3c1.378 0 2.5 1.122 2.5 2.5v1a.5.5 0 01-.5.5z"/><path d="M9.5 21h-7A2.503 2.503 0 010 18.5v-16C0 1.122 1.122 0 2.5 0h12C15.878 0 17 1.122 17 2.5v6.06a.5.5 0 01-1 0V2.5c0-.827-.673-1.5-1.5-1.5h-12C1.673 1 1 1.673 1 2.5v16c0 .827.673 1.5 1.5 1.5h7a.5.5 0 010 1z"/><path d="M17.5 24a6.508 6.508 0 01-6.5-6.5c0-3.584 2.916-6.5 6.5-6.5s6.5 2.916 6.5 6.5-2.916 6.5-6.5 6.5zm0-12a5.506 5.506 0 00-5.5 5.5c0 3.033 2.467 5.5 5.5 5.5s5.5-2.467 5.5-5.5-2.467-5.5-5.5-5.5z"/><path d="M16.5 20a.505.505 0 01-.354-.146l-2-2a.5.5 0 01.707-.707l1.622 1.622 3.148-3.598a.5.5 0 11.753.659l-3.5 4a.499.499 0 01-.36.17H16.5z"/></g><defs><clipPath id="clip0_117_11885"><path fill="#fff" d="M0 0h24v24H0z"/></clipPath></defs></svg>